<svg aria-hidden="true" style="position: absolute; width: 0; height: 0; overflow: hidden;" version="1.1" xmlns="http://www.w3.org/2000/svg" xmlns:xlink="http://www.w3.org/1999/xlink">
<defs>
<symbol id="icon-logo" viewBox="0 0 39 32">
<path fill="#fff" style="fill: var(--color1, #fff)" d="M33.417 18.492c-3.623-1.742-9.452-2.852-14.756-2.852-3.25 0-5.246-5.623-5.803-9.307l2.101-3.568c0.944-1.583 2.648-2.627 4.596-2.627s3.651 1.044 4.582 2.602l0.013 0.024 9.266 15.726zM36.391 23.541l0.249 0.418c0.465 0.775 0.74 1.71 0.74 2.709 0 2.945-2.387 5.332-5.332 5.332-0.002 0-0.004 0-0.006 0h-24.977c-2.945-0.001-5.332-2.388-5.332-5.333 0-0.998 0.274-1.933 0.752-2.732l-0.013 0.024 8.030-13.625c0.741 4.907 3.812 8.862 8.16 8.862 4.884 0 11.929 0.953 17.73 4.343z"></path>
</symbol>
<symbol id="icon-youtube" viewBox="0 0 32 32">
<path fill="#ff3131" style="fill: var(--color1, #ff3131)" d="M16.102 3.998h0.178c1.644 0.006 9.974 0.066 12.22 0.67 1.384 0.384 2.45 1.454 2.823 2.812l0.007 0.028c0.202 0.76 0.344 1.766 0.44 2.804l0.020 0.208 0.044 0.52 0.016 0.208c0.13 1.828 0.146 3.54 0.148 3.914v0.15c-0.002 0.388-0.020 2.216-0.164 4.12l-0.016 0.21-0.018 0.208c-0.1 1.144-0.248 2.28-0.47 3.116-0.378 1.386-1.446 2.457-2.802 2.833l-0.028 0.007c-2.32 0.624-11.138 0.668-12.36 0.67h-0.284c-0.618 0-3.174-0.012-5.854-0.104l-0.34-0.012-0.174-0.008-0.684-0.028c-2.22-0.098-4.334-0.256-5.308-0.52-1.384-0.383-2.451-1.453-2.823-2.81l-0.007-0.028c-0.222-0.834-0.37-1.972-0.47-3.116l-0.016-0.21-0.016-0.208c-0.093-1.196-0.152-2.615-0.164-4.046l-0-0.026v-0.246c0.004-0.43 0.020-1.916 0.128-3.556l0.014-0.206 0.006-0.104 0.016-0.208 0.044-0.52 0.020-0.208c0.096-1.038 0.238-2.046 0.44-2.804 0.379-1.386 1.446-2.457 2.802-2.833l0.028-0.007c0.974-0.26 3.088-0.42 5.308-0.52l0.34-0.014 0.516-0.018 0.342-0.014c1.904-0.060 3.808-0.096 5.712-0.102h0.386v-0.002zM12.8 10.418v9.636l8.314-4.816-8.314-4.82z"></path>
</symbol>
<symbol id="icon-mouse" viewBox="0 0 21 32">
<path fill="#fff" style="fill: var(--color1, #fff)" d="M10.667 6.667c-0.354 0-0.693 0.14-0.943 0.391s-0.391 0.589-0.391 0.943v5.333c0 0.354 0.14 0.693 0.391 0.943s0.589 0.391 0.943 0.391c0.354 0 0.693-0.141 0.943-0.391s0.391-0.589 0.391-0.943v-5.333c0-0.354-0.14-0.693-0.391-0.943s-0.589-0.391-0.943-0.391z"></path>
<path fill="#fff" style="fill: var(--color1, #fff)" d="M0 10.667v10.667c0 2.829 1.124 5.542 3.124 7.543s4.713 3.124 7.542 3.124c2.829 0 5.542-1.124 7.543-3.124s3.124-4.714 3.124-7.543v-10.667c0-2.829-1.124-5.542-3.124-7.542s-4.714-3.124-7.543-3.124c-2.829 0-5.542 1.124-7.542 3.124s-3.124 4.713-3.124 7.542zM18.667 10.667v10.667c0 2.122-0.843 4.157-2.343 5.657s-3.535 2.343-5.657 2.343-4.157-0.843-5.657-2.343c-1.5-1.5-2.343-3.535-2.343-5.657v-10.667c0-2.122 0.843-4.157 2.343-5.657s3.535-2.343 5.657-2.343c2.122 0 4.157 0.843 5.657 2.343s2.343 3.535 2.343 5.657z"></path>
</symbol>
<symbol id="icon-arrow-1" viewBox="0 0 98 32">
<path fill="#fff" style="fill: var(--color1, #fff)" opacity="0.5" d="M2 14c-1.105 0-2 0.895-2 2s0.895 2 2 2v0-4zM97.414 17.414c0.362-0.362 0.586-0.862 0.586-1.414s-0.224-1.052-0.586-1.414l-12.728-12.728c-0.364-0.377-0.874-0.611-1.439-0.611-1.105 0-2 0.895-2 2 0 0.565 0.234 1.074 0.61 1.438l0.001 0.001 11.314 11.314-11.314 11.314c-0.347 0.359-0.561 0.849-0.561 1.389 0 1.105 0.895 2 2 2 0.54 0 1.030-0.214 1.39-0.562l-0.001 0.001 12.728-12.728zM2 18h94v-4h-94v4z"></path>
</symbol>
<symbol id="icon-play" viewBox="0 0 27 32">
<path fill="#fff" style="fill: var(--color1, #fff)" d="M4.235 1.542c0.687-0.354 1.499-0.562 2.36-0.562 0.002 0 0.004 0 0.006 0h-0c0.865 0.038 2.48 0.603 3.12 0.862 4.207 1.65 12.247 7.049 15.328 10.349 0.526 0.526 1.089 1.162 1.24 1.312 0.609 0.788 0.976 1.79 0.976 2.878 0 0.018-0 0.036-0 0.053l0-0.003c0 0.971-0.301 1.945-0.902 2.733-0.112 0.15-0.639 0.789-1.051 1.2l-0.225 0.225c-3.157 3.411-11.008 8.549-14.991 10.198 0 0.038-2.366 1.013-3.494 1.050h-0.151c-1.805-0.011-3.369-1.030-4.158-2.523l-0.012-0.026c-0.45-0.863-0.864-3.375-0.902-3.413-0.337-2.25-0.563-5.696-0.563-9.486 0-3.975 0.226-7.574 0.64-9.786 0-0.038 0.411-2.062 0.674-2.737 0.438-0.996 1.169-1.797 2.082-2.311l0.024-0.013z"></path>
</symbol>
<symbol id="icon-weather" viewBox="0 0 32 32">
<path fill="#fff" style="fill: var(--color1, #fff)" d="M17.6 26.666c0.007-0 0.016-0 0.025-0 0.59 0 1.067 0.478 1.067 1.067s-0.478 1.067-1.067 1.067c-0.009 0-0.017-0-0.026-0l0.001 0c-0.579-0.014-1.043-0.486-1.043-1.067s0.464-1.053 1.041-1.067l0.001-0zM13.867 25.6c0.016-0.001 0.034-0.001 0.053-0.001 0.59 0 1.067 0.478 1.067 1.067 0 0.579-0.461 1.051-1.036 1.067l-0.002 0c-0.009 0-0.019 0-0.029 0-0.59 0-1.067-0.478-1.067-1.067 0-0.571 0.448-1.037 1.012-1.066l0.003-0zM21.333 25.6c0.016-0.001 0.034-0.001 0.053-0.001 0.59 0 1.067 0.478 1.067 1.067 0 0.579-0.461 1.051-1.036 1.067l-0.002 0c-0.009 0-0.019 0-0.029 0-0.59 0-1.067-0.478-1.067-1.067 0-0.571 0.448-1.037 1.012-1.066l0.003-0zM17.6 9.6c3.944 0 6.181 2.517 6.506 5.558h0.099c2.538 0 4.595 1.979 4.595 4.421 0 2.442-2.057 4.421-4.594 4.421h-13.211c-2.538 0-4.595-1.979-4.595-4.421s2.057-4.421 4.595-4.421h0.099c0.328-3.063 2.562-5.558 6.506-5.558zM6.085 13.92c0.028 0.078 0.044 0.169 0.044 0.263 0 0.298-0.162 0.557-0.403 0.695l-0.004 0.002-0.133 0.057-1.282 0.442c-0.079 0.029-0.17 0.045-0.265 0.045-0.442 0-0.8-0.358-0.8-0.8 0-0.299 0.164-0.56 0.407-0.697l0.004-0.002 0.131-0.057 1.283-0.442c0.078-0.028 0.167-0.043 0.26-0.043 0.349 0 0.645 0.223 0.755 0.534l0.002 0.006v-0.002zM14.272 7.2c0.538 0.265 1 0.597 1.397 0.992l-0-0c-2.819 0.583-4.849 2.453-5.669 5.050l-0.105 0.358-0.074 0.299-0.264 0.048c-0.756 0.159-1.426 0.439-2.024 0.821l0.024-0.014c-0.523-0.802-0.834-1.784-0.834-2.838 0-2.898 2.349-5.247 5.247-5.247 0.837 0 1.629 0.196 2.331 0.545l-0.031-0.014zM4.667 7.472l0.133 0.051 1.219 0.593c0.269 0.133 0.451 0.405 0.451 0.72 0 0.442-0.358 0.8-0.8 0.8-0.078 0-0.153-0.011-0.224-0.032l0.006 0.001-0.134-0.051-1.219-0.593c-0.268-0.133-0.45-0.405-0.45-0.719 0-0.442 0.358-0.8 0.8-0.8 0.077 0 0.151 0.011 0.221 0.031l-0.006-0.001h0.002zM15.984 3.672c0.268 0.133 0.449 0.405 0.449 0.719 0 0.077-0.011 0.152-0.031 0.223l0.001-0.006-0.051 0.134-0.594 1.219c-0.133 0.269-0.405 0.451-0.72 0.451-0.442 0-0.8-0.358-0.8-0.8 0-0.077 0.011-0.152 0.031-0.223l-0.001 0.006 0.051-0.136 0.595-1.219c0.133-0.268 0.405-0.449 0.719-0.449 0.127 0 0.248 0.030 0.355 0.083l-0.005-0.002zM9.92 3.621l0.059 0.131 0.442 1.283c0.028 0.078 0.044 0.169 0.044 0.263 0 0.442-0.358 0.8-0.8 0.8-0.299 0-0.56-0.164-0.697-0.407l-0.002-0.004-0.057-0.131-0.442-1.282c-0.027-0.077-0.042-0.165-0.042-0.257 0-0.442 0.358-0.8 0.8-0.8 0.296 0 0.554 0.161 0.693 0.4l0.002 0.004z"></path>
<path fill="#edff1b" style="fill: var(--color2, #edff1b)" d="M6.078 14.466c0.033-0.084 0.052-0.182 0.052-0.283 0-0.094-0.016-0.185-0.046-0.268l0.002 0.006v0.002c-0.111-0.317-0.408-0.539-0.756-0.539-0.093 0-0.182 0.016-0.265 0.045l0.006-0.002-1.283 0.442-0.131 0.057c-0.249 0.139-0.414 0.401-0.414 0.701 0 0.442 0.358 0.8 0.8 0.8 0.096 0 0.188-0.017 0.273-0.048l-0.006 0.002 1.281-0.442 0.133-0.057c0.163-0.093 0.288-0.237 0.354-0.409l0.002-0.005zM15.669 8.192c-0.948-0.938-2.252-1.518-3.691-1.518-2.898 0-5.248 2.35-5.248 5.248 0 1.052 0.309 2.031 0.842 2.852l-0.012-0.020c0.574-0.368 1.244-0.648 1.961-0.799l0.039-0.007 0.264-0.048 0.074-0.299 0.103-0.358c0.821-2.597 2.85-4.467 5.669-5.050zM4.8 7.523l-0.133-0.051h-0.002c-0.065-0.019-0.14-0.030-0.217-0.030-0.442 0-0.8 0.358-0.8 0.8 0 0.315 0.182 0.587 0.446 0.718l0.005 0.002 1.219 0.594 0.135 0.051c0.065 0.019 0.139 0.030 0.216 0.030 0.442 0 0.8-0.358 0.8-0.8 0-0.314-0.181-0.586-0.445-0.717l-0.005-0.002-1.219-0.594zM16.363 4.064c-0.128-0.281-0.407-0.472-0.73-0.472-0.314 0-0.585 0.18-0.716 0.443l-0.002 0.005-0.595 1.219-0.051 0.136c-0.019 0.065-0.030 0.14-0.030 0.217 0 0.442 0.358 0.8 0.8 0.8 0.315 0 0.587-0.182 0.718-0.446l0.002-0.005 0.594-1.219 0.051-0.134c0.019-0.065 0.030-0.14 0.030-0.217 0-0.119-0.026-0.231-0.072-0.332l0.002 0.005zM9.979 3.752l-0.059-0.131c-0.14-0.243-0.399-0.404-0.695-0.404-0.442 0-0.8 0.358-0.8 0.8 0 0.092 0.015 0.18 0.044 0.262l-0.002-0.006 0.442 1.282 0.057 0.131c0.14 0.246 0.4 0.409 0.698 0.409 0.442 0 0.8-0.358 0.8-0.8 0-0.093-0.016-0.183-0.045-0.266l0.002 0.006-0.441-1.283z"></path>
</symbol>
<symbol id="icon-weather-rain" viewBox="0 0 32 32">
<path fill="#fff" style="fill: var(--color1, #fff)" d="M15.999 4c4.225 0 6.621 2.797 6.97 6.173h0.107c2.719 0 4.923 2.199 4.923 4.91s-2.204 4.91-4.923 4.91l-1.149 0.001-0.003 0.006h-0.391l-1.314 2.253c-0.143 0.266-0.419 0.445-0.738 0.445-0.461 0-0.834-0.374-0.834-0.834 0-0.167 0.049-0.323 0.134-0.454l-0.002 0.003 0.829-1.42-2.839 0.001-0.002 0.006h-0.567l-1.314 2.253c-0.148 0.249-0.415 0.413-0.72 0.413-0.269 0-0.509-0.128-0.662-0.326l-0.001-0.002c-0.106-0.138-0.171-0.314-0.171-0.505 0-0.155 0.042-0.299 0.115-0.423l-0.002 0.004 0.829-1.42-2.663 0.001-0.002 0.006h-0.741l-1.314 2.253c-0.147 0.249-0.415 0.413-0.72 0.413-0.27 0-0.51-0.128-0.662-0.327l-0.001-0.002c-0.106-0.138-0.17-0.314-0.17-0.505 0-0.155 0.042-0.3 0.116-0.424l-0.002 0.004 0.829-1.42h-0.019c-2.719 0-4.923-2.198-4.923-4.91s2.204-4.91 4.923-4.91h0.106c0.351-3.399 2.746-6.173 6.971-6.173h-0.001zM11.753 23.113c0.249 0.147 0.413 0.415 0.413 0.72 0 0.155-0.042 0.299-0.115 0.424l0.002-0.004-1.166 2c-0.147 0.249-0.414 0.414-0.72 0.414-0.46 0-0.834-0.373-0.834-0.834 0-0.155 0.042-0.3 0.116-0.424l-0.002 0.004 1.167-2c0.147-0.249 0.415-0.413 0.72-0.413 0.155 0 0.299 0.042 0.424 0.115l-0.004-0.002zM17.386 24.253c0.071-0.12 0.114-0.265 0.114-0.42 0-0.46-0.373-0.833-0.833-0.833-0.305 0-0.572 0.164-0.717 0.409l-0.002 0.004-1.167 2c-0.071 0.12-0.113 0.265-0.113 0.419 0 0.421 0.311 0.768 0.716 0.826l0.004 0.001c0.034 0.005 0.073 0.008 0.113 0.008 0.306 0 0.573-0.164 0.718-0.41l0.002-0.004 1.167-2h-0.001z"></path>
<path fill="#edff1b" style="fill: var(--color2, #edff1b)" d="M11.997 23.329c-0.067-0.087-0.148-0.159-0.24-0.213l-0.004-0.002h0.001c-0.12-0.071-0.265-0.114-0.42-0.114-0.306 0-0.573 0.165-0.718 0.41l-0.002 0.004-1.167 2c-0.071 0.12-0.114 0.265-0.114 0.42 0 0.46 0.373 0.833 0.833 0.833 0.305 0 0.573-0.164 0.718-0.409l0.002-0.004 1.167-2c0.071-0.12 0.113-0.265 0.113-0.42 0-0.191-0.064-0.367-0.172-0.507l0.001 0.002zM17.497 23.945c-0.018 0.116-0.056 0.22-0.113 0.312l0.002-0.004h0.001l-1.167 2c-0.147 0.251-0.415 0.417-0.721 0.417-0.46 0-0.833-0.373-0.833-0.833 0-0.041 0.003-0.081 0.009-0.121l-0.001 0.005c0.015-0.109 0.051-0.213 0.106-0.307l1.167-2c0.146-0.255 0.416-0.424 0.726-0.424 0.46 0 0.833 0.373 0.833 0.833 0 0.043-0.003 0.085-0.010 0.127l0.001-0.005z"></path>
</symbol>
<symbol id="icon-weather-lightining" viewBox="0 0 32 32">
<path fill="#fff" style="fill: var(--color1, #fff)" d="M18.347 17.606c0.203 0.184 0.331 0.448 0.331 0.743 0 0.257-0.097 0.492-0.257 0.669l0.001-0.001-1.481 1.648h3.034c0 0 0.001 0 0.001 0 0.552 0 1 0.448 1 1 0 0.237-0.082 0.455-0.22 0.626l0.002-0.002-4.282 5.375c-0.185 0.22-0.46 0.359-0.768 0.359-0.552 0-1-0.448-1-1 0-0.228 0.077-0.439 0.206-0.607l-0.002 0.002 2.989-3.753h-3.204c-0.552-0-1-0.448-1-1 0-0.257 0.097-0.492 0.257-0.669l-0.001 0.001 2.981-3.317c0.184-0.204 0.449-0.332 0.744-0.332 0.258 0 0.493 0.098 0.671 0.258l-0.001-0.001zM17.336 6.679c4.224 0 6.621 2.796 6.969 6.173h0.107c0.002 0 0.005 0 0.007 0 2.713 0 4.913 2.198 4.915 4.911v0c-0.004 2.712-2.204 4.909-4.917 4.909-0.002 0-0.004 0-0.007 0h-2.329c0.724-1.484-0.336-3.34-2.107-3.34h-0.181c0.138-0.289 0.219-0.628 0.219-0.986 0-1.289-1.045-2.334-2.334-2.334-0.69 0-1.309 0.299-1.737 0.775l-0.002 0.002-2.98 3.316c-0.374 0.408-0.604 0.955-0.604 1.555 0 0.369 0.087 0.717 0.241 1.026l-0.006-0.013h-2.333c-0.002 0-0.004 0-0.007 0-2.713 0-4.913-2.198-4.916-4.91v-0c0.003-2.713 2.203-4.911 4.916-4.911 0.002 0 0.005 0 0.007 0h0.106c0.351-3.4 2.747-6.173 6.971-6.173zM13.333 2.667c2.156 0 4.067 1.086 5.2 2.749-0.357-0.045-0.769-0.071-1.188-0.071-0.003 0-0.006 0-0.010 0h0c-3.992 0-6.895 2.236-7.916 5.617l-0.091 0.32-0.077 0.318-0.274 0.052c-2.157 0.47-3.872 2.006-4.585 4.016l-0.014 0.044c-1.046-0.808-1.713-2.062-1.713-3.472 0-2.33 1.821-4.234 4.117-4.368l0.012-0.001 0.343-0.008c0.541-2.971 3.108-5.195 6.195-5.196h0z"></path>
<path fill="#edff1b" style="fill: var(--color2, #edff1b)" d="M18.677 18.296c-0.028-0.529-0.465-0.948-0.999-0.948-0.295 0-0.56 0.128-0.743 0.331l-0.001 0.001-2.982 3.317c-0.159 0.176-0.256 0.411-0.256 0.669 0 0.552 0.448 1 1 1 0 0 0 0 0 0h3.204l-2.989 3.753c-0.125 0.165-0.2 0.373-0.2 0.599 0 0.552 0.448 1 1 1 0.305 0 0.579-0.137 0.762-0.353l0.001-0.001 4.282-5.375c0.136-0.169 0.219-0.387 0.219-0.624 0-0.552-0.448-1-1-1-0 0-0.001 0-0.002 0h-3.034l1.481-1.648c0.177-0.197 0.269-0.457 0.255-0.721z"></path>
</symbol>
<symbol id="icon-home" viewBox="0 0 31 32">
<path fill="#020e20" style="fill: var(--color1, #020e20)" d="M26.886 16.806c0 6.181-5.013 11.192-11.197 11.192s-11.197-5.011-11.197-11.192c0-6.181 5.013-11.192 11.197-11.192s11.197 5.011 11.197 11.192z"></path>
<path fill="#2aef84" style="fill: var(--color2, #2aef84)" d="M15.725 0.4c-8.679 0-15.714 7.033-15.714 15.709s7.036 15.708 15.715 15.708c8.679 0 15.715-7.033 15.715-15.708s-7.036-15.708-15.715-15.708zM15.725 7.639l7.674 5.962v10.977h-5.28v-6.626h-4.788v6.626h-5.279v-10.978l7.674-5.962z"></path>
</symbol>
<symbol id="icon-arrow-right-1" viewBox="0 0 31 32">
<path fill="none" stroke="#fff" style="stroke: var(--color1, #fff)" stroke-linejoin="round" stroke-linecap="round" stroke-miterlimit="4" stroke-width="1.3061" d="M6.531 16h18.286M15.673 6.857l9.143 9.143-9.143 9.143"></path>
</symbol>
<symbol id="icon-arrow-left-1" viewBox="0 0 31 32">
<path fill="none" stroke="#fff" style="stroke: var(--color1, #fff)" stroke-linejoin="round" stroke-linecap="round" stroke-miterlimit="4" stroke-width="1.3061" d="M24.816 16h-18.286M15.673 25.143l-9.143-9.143 9.143-9.143"></path>
</symbol> 
<symbol id="icon-arrow-right-2" viewBox="0 0 32 32">
<path fill="none" stroke="#fff" style="stroke: var(--color1, #fff)" stroke-linejoin="round" stroke-linecap="round" stroke-miterlimit="4" stroke-width="2.6667" d="M6.667 16h18.667"></path>
<path fill="#fff" style="fill: var(--color1, #fff)" d="M16 6.667l9.333 9.333-9.333 9.333z"></path>
<path fill="none" stroke="#fff" style="stroke: var(--color1, #fff)" stroke-linejoin="round" stroke-linecap="round" stroke-miterlimit="4" stroke-width="2.6667" d="M16 6.667l9.333 9.333-9.333 9.333"></path>
</symbol>
<symbol id="icon-buy" viewBox="0 0 32 32">
<path fill="#fff" style="fill: var(--color1, #fff)" d="M8 0h16c4.418 0 8 3.582 8 8v16c0 4.418-3.582 8-8 8h-16c-4.418 0-8-3.582-8-8v-16c0-4.418 3.582-8 8-8z"></path>
<path fill="none" stroke="#020e20" style="stroke: var(--color2, #020e20)" stroke-linejoin="round" stroke-linecap="round" stroke-miterlimit="4" stroke-width="1.5" d="M14 22.666c0.368 0 0.667-0.298 0.667-0.667s-0.299-0.667-0.667-0.667c-0.368 0-0.667 0.299-0.667 0.667s0.298 0.667 0.667 0.667z"></path>
<path fill="none" stroke="#020e20" style="stroke: var(--color2, #020e20)" stroke-linejoin="round" stroke-linecap="round" stroke-miterlimit="4" stroke-width="1.5" d="M21.333 22.666c0.368 0 0.667-0.298 0.667-0.667s-0.299-0.667-0.667-0.667c-0.368 0-0.667 0.299-0.667 0.667s0.299 0.667 0.667 0.667z"></path>
<path fill="none" stroke="#020e20" style="stroke: var(--color2, #020e20)" stroke-linejoin="round" stroke-linecap="round" stroke-miterlimit="4" stroke-width="1.5" d="M8.667 8.667h2.667l1.787 8.927c0.061 0.307 0.228 0.583 0.472 0.779s0.549 0.3 0.862 0.294h6.48c0.313 0.006 0.618-0.098 0.862-0.294s0.411-0.472 0.472-0.779l1.067-5.593h-11.333"></path>
</symbol>
<symbol id="icon-fb" viewBox="0 0 32 32">
<path fill="#fff" style="fill: var(--color1, #fff)" d="M13.279 30.147l-0.040-12.315h-5.239v-5.277h5.239v-3.519c0-4.747 2.917-7.036 7.123-7.036 2.013 0 3.744 0.151 4.248 0.219v4.963h-2.916c-2.285 0-2.728 1.096-2.728 2.701v2.672h6.495l-1.747 5.277h-4.748v12.315h-5.687z"></path>
</symbol>
<symbol id="icon-twitter" viewBox="0 0 32 32">
<path fill="#fff" style="fill: var(--color1, #fff)" d="M29.331 7.733c-0.916 0.409-1.979 0.709-3.091 0.848l-0.055 0.006c1.133-0.685 1.986-1.737 2.402-2.988l0.011-0.039c-1.002 0.607-2.167 1.069-3.41 1.321l-0.070 0.012c-1.002-1.084-2.431-1.761-4.019-1.761-3.019 0-5.467 2.447-5.467 5.467 0 0.455 0.055 0.896 0.16 1.318l-0.008-0.038c-4.555-0.237-8.56-2.404-11.245-5.692l-0.022-0.028c-0.461 0.791-0.733 1.742-0.733 2.756 0 0.001 0 0.003 0 0.004v-0c0 0.003 0 0.007 0 0.010 0 1.884 0.955 3.544 2.407 4.524l0.019 0.012c-0.914-0.026-1.765-0.275-2.507-0.694l0.027 0.014v0.067c0.014 2.63 1.883 4.819 4.365 5.327l0.035 0.006c-0.438 0.138-0.941 0.221-1.464 0.227l-0.003 0c-0.366-0.004-0.721-0.038-1.066-0.099l0.039 0.006c0.725 2.184 2.728 3.739 5.101 3.787l0.006 0c-1.845 1.462-4.207 2.345-6.775 2.345-0.46 0-0.913-0.028-1.359-0.083l0.053 0.005c2.363 1.547 5.258 2.467 8.368 2.467 0.007 0 0.013 0 0.020 0h-0.001c0.048 0.001 0.104 0.001 0.16 0.001 8.535 0 15.453-6.919 15.453-15.453 0-0.042-0-0.085-0-0.127l0 0.007v-0.707c1.048-0.787 1.933-1.723 2.641-2.786l0.026-0.041z"></path>
</symbol>
<symbol id="icon-yt" viewBox="0 0 32 32">
<path fill="#fff" style="fill: var(--color1, #fff)" d="M16.101 4.76h0.179c1.644 0.007 9.973 0.067 12.22 0.671 1.383 0.385 2.45 1.455 2.823 2.812l0.007 0.028c0.203 0.76 0.345 1.767 0.44 2.804l0.020 0.208 0.045 0.52 0.015 0.208c0.131 1.828 0.147 3.54 0.148 3.915v0.149c-0.012 1.474-0.071 2.909-0.177 4.332l0.013-0.212-0.016 0.211-0.017 0.208c-0.1 1.144-0.248 2.28-0.471 3.116-0.378 1.386-1.445 2.457-2.801 2.833l-0.028 0.007c-2.32 0.624-11.139 0.667-12.36 0.669h-0.284c-0.617 0-3.173-0.012-5.853-0.104l-0.34-0.012-0.175-0.008-0.684-0.027c-2.22-0.099-4.333-0.257-5.308-0.52-1.384-0.384-2.451-1.455-2.823-2.813l-0.007-0.028c-0.223-0.833-0.371-1.971-0.471-3.115l-0.016-0.211-0.016-0.208c-0.093-1.196-0.152-2.614-0.164-4.044l-0-0.026v-0.245c0.004-0.431 0.020-1.916 0.128-3.556l0.013-0.207 0.007-0.104 0.016-0.208 0.044-0.52 0.020-0.208c0.096-1.037 0.237-2.045 0.44-2.804 0.379-1.386 1.446-2.457 2.802-2.833l0.028-0.007c0.973-0.26 3.087-0.42 5.307-0.52l0.684-0.027 0.173-0.005 0.341-0.013c1.904-0.061 3.808-0.096 5.712-0.103h0.387v-0.001zM12.8 11.183v9.636l8.315-4.819-8.315-4.819z"></path>
</symbol>
<symbol id="icon-ig" viewBox="0 0 32 32">
<path fill="#fff" style="fill: var(--color1, #fff)" d="M24.328 10.924c0.975 0 1.765-0.79 1.765-1.765s-0.79-1.765-1.765-1.765v0c-0.975 0-1.765 0.79-1.765 1.765s0.79 1.765 1.765 1.765v0z"></path>
<path fill="#fff" style="fill: var(--color1, #fff)" d="M9.356 16.711c0.004 4.061 3.294 7.351 7.354 7.356h0c4.061-0.004 7.352-3.295 7.356-7.356v-0c-0.005-4.061-3.295-7.351-7.356-7.355h-0c-4.060 0.005-7.35 3.295-7.355 7.354v0zM13.033 16.711c0.002-2.030 1.647-3.675 3.677-3.677h0c2.031 0.002 3.676 1.647 3.679 3.677v0c-0.002 2.031-1.648 3.677-3.679 3.679h-0c-2.030-0.002-3.676-1.648-3.677-3.679v-0z"></path>
<path fill="#fff" style="fill: var(--color1, #fff)" d="M9.356 31.423h14.711c3.781 0 7.356-3.575 7.356-7.356v-14.711c0-3.781-3.575-7.356-7.356-7.356h-14.711c-3.783 0-7.356 3.575-7.356 7.356v14.711c0 3.781 3.575 7.356 7.356 7.356zM5.677 9.356c0-1.72 1.96-3.679 3.679-3.679h14.711c1.72 0 3.677 1.959 3.677 3.677v14.712c0 1.72-1.957 3.677-3.677 3.677h-14.711c-1.753 0-3.679-1.925-3.679-3.677v-14.712z"></path>
</symbol>
</defs>
</svg>

